# xmcd
# 
# Track frame offsets:
#     183
#     14313
#     30325
#     45378
#     61173
#     79340
#     93528
#     107445
#     120023
#     133363
#     145180
#     159698
#     175250
#     189803
#     203720
# 
# Disc length: 2881
# 
# Revision: 5
# Processed by: cddbd v1.5.2PL0 Copyright (c) Steve Scherf et al.
# Submitted via: fre:ac v1.0.31
# 
DISCID=b80b3f0f
DTITLE=Truck Stop - Keep It Country
DYEAR=1989
DGENRE=Country
TTITLE0=Cowboys und Texasboots
TTITLE1=Lisa
TTITLE2=Lass' dir nie den Tag verderben
TTITLE3=Cowboys
TTITLE4=Super-Trucker-Festival
TTITLE5=Schottischer Whisky
TTITLE6=Ich bin verliebt
TTITLE7=Dixie Lady
TTITLE8=Bei uns in Stade
TTITLE9=Bin eifersüchtig
TTITLE10=Zwölf Rosen
TTITLE11=Heut' Nacht sah' ich den lieben Gott
TTITLE12=Sieht sie 'nen Cowboy ...
TTITLE13=Die Schüler von der letzten Bank
TTITLE14=Keine Liebe hält ewig
EXTD=
EXTT0=
EXTT1=
EXTT2=
EXTT3=
EXTT4=
EXTT5=
EXTT6=
EXTT7=
EXTT8=
EXTT9=
EXTT10=
EXTT11=
EXTT12=
EXTT13=
EXTT14=
PLAYORDER=
